# xmcd CD database file
#
# Track frame offsets:
#	150
#	24213
#	56429
#	92717
#	99832
#	123647
#	159732
#	178291
#
# Disc length: 2506 seconds
#
# Revision: 0
# Processed by: cddbd v1.5PL3 Copyright (c) Steve Scherf et al.
# Submitted via: CDex 1.51
#
DISCID=5f09c808
DTITLE=Монотоны - Монотоны
DYEAR=2003
DGENRE=Jazz
TTITLE0=Пересек
TTITLE1=Облако для Марины
TTITLE2=17 С
TTITLE3=Интерлюдия
TTITLE4=Бег из тьмы
TTITLE5=Песня для Давида
TTITLE6=Фаст Вальс
TTITLE7=Эпилог. Колыбельная дождя
EXTD=YEAR: 2003
EXTT0=
EXTT1=
EXTT2=
EXTT3=
EXTT4=
EXTT5=
EXTT6=
EXTT7=
PLAYORDER=
